<?xml version="1.0" standalone="no"?>
<!DOCTYPE svg PUBLIC "-//W3C//DTD SVG 20010904//EN"
 "http://www.w3.org/TR/2001/REC-SVG-20010904/DTD/svg10.dtd">
<svg version="1.0" xmlns="http://www.w3.org/2000/svg"
 width="688.000000pt" height="688.000000pt" viewBox="0 0 688.000000 688.000000"
 preserveAspectRatio="xMidYMid meet">
<metadata>
Created by potrace 1.14, written by Peter Selinger 2001-2017
</metadata>
<g transform="translate(0.000000,688.000000) scale(0.100000,-0.100000)"
fill="#000000" stroke="none">
<path d="M1462 6353 l0 -528 526 1 c290 0 535 -2 545 -4 9 -2 17 -9 17 -15 0
-6 13 -47 29 -91 16 -45 48 -135 71 -201 23 -66 45 -129 50 -140 4 -11 34 -94
65 -185 31 -91 63 -182 72 -202 19 -44 19 -43 -56 -163 -34 -53 -61 -100 -61
-106 0 -5 -4 -9 -10 -9 -5 0 -10 -7 -10 -15 0 -8 -4 -15 -10 -15 -5 0 -10 -5
-10 -10 0 -6 -27 -53 -60 -105 -33 -52 -60 -99 -60 -105 0 -5 -4 -10 -10 -10
-5 0 -10 -6 -10 -14 0 -8 -3 -16 -7 -18 -5 -1 -34 -46 -66 -98 -32 -52 -62
-102 -67 -110 -5 -8 -53 -85 -105 -170 -52 -85 -100 -162 -105 -170 -5 -8 -28
-46 -52 -85 -23 -38 -45 -72 -48 -75 -4 -3 -9 -12 -13 -20 -4 -8 -27 -46 -51
-85 -45 -71 -122 -195 -141 -228 -17 -29 -166 -269 -197 -315 -15 -24 -28 -45
-28 -47 0 -2 -14 -24 -30 -48 -17 -25 -30 -50 -30 -56 0 -6 -4 -11 -10 -11 -5
0 -10 -7 -10 -15 0 -8 -4 -15 -10 -15 -5 0 -10 -4 -10 -9 0 -9 -85 -149 -156
-257 -19 -28 -34 -56 -34 -62 0 -7 -4 -12 -9 -12 -5 0 -11 -8 -15 -17 -3 -10
-26 -49 -51 -88 -25 -38 -50 -80 -55 -92 -5 -11 -13 -24 -19 -27 -5 -4 -20
-27 -32 -51 -12 -25 -26 -45 -31 -45 -4 0 -8 -4 -8 -9 0 -8 -267 -444 -486
-794 -41 -65 -74 -122 -74 -127 0 -4 -4 -10 -8 -12 -5 -1 -35 -47 -68 -101
-32 -54 -67 -110 -76 -125 -10 -15 -27 -43 -38 -62 -11 -19 -47 -78 -80 -130
-33 -52 -78 -124 -100 -160 -57 -93 -63 -102 -81 -130 -8 -14 -25 -41 -37 -60
l-21 -36 621 1 621 0 86 133 c132 203 436 684 440 696 2 6 10 15 17 19 8 4 14
12 14 16 0 5 27 51 59 102 33 52 90 142 127 201 37 59 73 113 80 119 8 6 14
16 14 21 0 6 47 83 104 171 57 89 191 302 299 472 108 171 200 315 204 320 4
6 17 26 27 45 11 19 22 37 26 40 3 3 17 23 30 45 13 22 43 70 67 106 23 37 43
72 43 78 0 6 5 11 10 11 6 0 14 8 17 18 6 15 32 57 129 208 18 28 69 108 113
177 l79 127 25 -63 c14 -34 41 -107 61 -162 21 -55 41 -109 46 -120 5 -11 62
-159 126 -330 64 -170 129 -344 144 -385 15 -41 47 -124 70 -185 23 -60 43
-114 44 -120 1 -5 10 -27 19 -49 9 -21 17 -41 17 -44 0 -5 41 -113 60 -157 13
-33 35 -90 35 -95 0 -3 14 -39 30 -80 16 -41 30 -77 31 -80 0 -3 4 -13 8 -22
4 -9 9 -22 10 -30 1 -7 7 -22 13 -33 6 -11 16 -38 23 -60 7 -22 18 -53 25 -70
7 -16 27 -68 45 -115 17 -47 40 -106 51 -132 10 -26 19 -54 19 -62 0 -9 4 -16
10 -16 5 0 9 -3 8 -7 -2 -8 31 -111 41 -128 3 -5 6 -12 7 -15 0 -3 4 -12 7
-20 6 -15 299 -793 341 -907 7 -18 15 -36 19 -39 4 -4 7 -16 7 -26 0 -10 3
-18 8 -18 4 0 7 31 7 70 l-1 70 55 15 c31 9 63 19 71 22 8 3 20 7 25 7 6 1 26
7 45 13 19 7 47 14 61 17 14 2 48 12 75 21 27 9 56 18 64 20 8 2 87 24 175 50
280 81 439 127 458 130 9 2 22 7 27 10 5 3 18 8 27 10 10 2 68 18 128 35 61
18 139 40 175 50 36 10 106 30 155 44 50 15 95 28 100 30 6 2 24 6 40 10 17 4
41 11 55 16 42 14 164 50 185 54 11 2 32 9 46 14 15 6 30 8 33 5 18 -19 -2 60
-86 337 -22 73 -46 157 -52 180 -3 8 -5 15 -6 15 -1 0 -3 7 -5 16 -1 8 -15 55
-30 102 -15 48 -28 93 -29 99 -2 7 -11 40 -21 73 -19 62 -23 74 -28 100 -2 8
-6 18 -10 21 -4 4 -7 18 -7 30 0 13 -4 26 -10 29 -5 3 -10 15 -10 26 0 10 -6
19 -12 19 -11 0 -237 -71 -278 -87 -8 -3 -20 -7 -27 -9 -13 -2 -317 -101 -343
-111 -8 -3 -19 -7 -25 -9 -5 -1 -59 -18 -120 -38 -60 -20 -114 -36 -118 -36
-10 0 -38 27 -36 35 1 5 -11 41 -31 90 -5 11 -43 108 -85 215 -42 107 -87 222
-100 255 -37 93 -172 437 -222 565 -24 63 -53 134 -64 157 -10 24 -19 47 -19
53 0 6 -4 18 -9 28 -6 9 -58 141 -117 292 -59 151 -127 324 -150 385 -24 60
-44 115 -44 122 0 7 -4 13 -10 13 -5 0 -9 3 -9 8 1 4 0 10 -1 15 -1 4 -3 10
-5 15 -1 4 -6 18 -12 32 -6 14 -32 79 -57 145 -26 66 -51 129 -56 140 -4 11
-41 103 -80 205 -81 208 -89 228 -101 252 -5 10 -9 22 -9 28 0 6 -9 29 -19 53
-10 23 -38 92 -62 152 -23 61 -46 114 -51 120 -4 5 -8 18 -8 30 0 12 -4 25 -9
31 -4 5 -25 54 -46 109 -21 55 -44 114 -52 132 -8 17 -15 37 -17 45 -1 7 -4
18 -8 23 -3 6 -52 127 -108 270 -197 505 -223 570 -235 600 -15 35 -81 205
-155 395 -29 74 -61 154 -71 177 -11 24 -19 49 -19 56 0 7 -4 17 -9 22 -5 6
-18 35 -29 65 l-20 55 -925 3 -925 2 0 -527z"/>
</g>
</svg>
